├óΓÇôΓÇ£├óΓÇôΓÇ£├óΓÇôΓÇ£├óΓÇôΓÇ£├óΓÇôΓÇ£├óΓÇôΓÇ£├óΓÇôΓÇ£├óΓÇôΓÇ£├óΓÇôΓÇ£├óΓÇôΓÇ£├óΓÇôΓÇÖ├óΓÇôΓÇÖ A MIDSUMMER NIGHT'S DREAM SHAKESPEAR RETOLD 2005 ├óΓÇôΓÇ£├óΓÇôΓÇ£├óΓÇôΓÇ£├óΓÇôΓÇ£├óΓÇôΓÇ£├óΓÇôΓÇ£├óΓÇôΓÇ£├óΓÇôΓÇ£├óΓÇôΓÇ£├óΓÇôΓÇ£├óΓÇôΓÇ£├óΓÇôΓÇ£├óΓÇôΓÇ£├óΓÇôΓÇ£├óΓÇôΓÇ£├óΓÇôΓÇ£├óΓÇôΓÇ£├óΓÇôΓÇ£├óΓÇôΓÇ£├óΓÇôΓÇ£ 

├óΓÇôΓÇ£├óΓÇôΓÇ£├óΓÇôΓÇ£├óΓÇôΓÇ£├óΓÇôΓÇ£├óΓÇôΓÇÖ├óΓÇôΓÇÿ  F i L E   i N F O  ├óΓÇôΓÇÿ├óΓÇôΓÇÖ├óΓÇôΓÇ£├óΓÇôΓÇ£├óΓÇôΓÇ£├óΓÇôΓÇ£├óΓÇôΓÇ£├óΓÇôΓÇ£├óΓÇôΓÇ£├óΓÇôΓÇ£├óΓÇôΓÇ£├óΓÇôΓÇ£├óΓÇôΓÇ£├óΓÇôΓÇ£├óΓÇôΓÇ£├óΓÇôΓÇ£├óΓÇôΓÇ£├óΓÇôΓÇ£├óΓÇôΓÇ£├óΓÇôΓÇ£├óΓÇôΓÇ£├óΓÇôΓÇ£├óΓÇôΓÇ£├óΓÇôΓÇ£├óΓÇôΓÇ£├óΓÇôΓÇ£├óΓÇôΓÇ£├óΓÇôΓÇ£├óΓÇôΓÇ£├óΓÇôΓÇ£├óΓÇôΓÇ£├óΓÇôΓÇ£├óΓÇôΓÇ£├óΓÇôΓÇ£├óΓÇôΓÇ£├óΓÇôΓÇ£├óΓÇôΓÇ£├óΓÇôΓÇ£├óΓÇôΓÇ£├óΓÇôΓÇ£├óΓÇôΓÇ£├óΓÇôΓÇ£├óΓÇôΓÇ£├óΓÇôΓÇ£├óΓÇôΓÇ£├óΓÇôΓÇ£├óΓÇôΓÇ£├óΓÇôΓÇ£├óΓÇôΓÇ£├óΓÇôΓÇ£├óΓÇôΓÇ£├óΓÇôΓÇ£├óΓÇôΓÇ£├óΓÇôΓÇ£


Format                           : AVI
Format/Info                      : Audio Video Interleave
File size                        : 701 MiB
Duration                         : 1h 25mn
Overall bit rate                 : 1 143 Kbps
Writing application              : VirtualDubMod 1.5.4.1 (build 2178/release)
Writing library                  : VirtualDubMod build 2178/release

Video
ID                               : 0
Format                           : MPEG-4 Visual
Format profile                   : Advanced Simple@L5
Format settings, BVOP            : Yes
Format settings, QPel            : No
Format settings, GMC             : No warppoints
Format settings, Matrix          : Custom
Codec ID                         : XVID
Codec ID/Hint                    : XviD
Duration                         : 1h 25mn
Bit rate                         : 880 Kbps
Width                            : 592 pixels
Height                           : 336 pixels
Display aspect ratio             : 16:9
Frame rate                       : 25.000 fps
Color space                      : YUV
Chroma subsampling               : 4:2:0
Bit depth                        : 8 bits
Scan type                        : Progressive
Bits/(Pixel*Frame)               : 0.177
Stream size                      : 540 MiB (77%)
Writing library                  : XviD 1.2.0.dev47 (UTC 2006-11-01)

Audio
ID                               : 1
Format                           : AC-3
Format/Info                      : Audio Coding 3
Mode extension                   : CM (complete main)
Codec ID                         : 2000
Duration                         : 1h 25mn
Bit rate mode                    : Constant
Bit rate                         : 256 Kbps
Channel(s)                       : 2 channels
Channel positions                : Front: L R
Sampling rate                    : 48.0 KHz
Stream size                      : 157 MiB (22%)
Alignment                        : Aligned on interleaves
Interleave, duration             : 96 ms (2.40 video frames)
Interleave, preload duration     : 96 ms
Language                         : English

 ├óΓÇôΓÇÿ├óΓÇôΓÇÖ├óΓÇôΓÇ£├óΓÇôΓÇ£├óΓÇôΓÇ£├óΓÇôΓÇ£├óΓÇôΓÇ£├óΓÇôΓÇ£├óΓÇôΓÇ£├óΓÇôΓÇ£├óΓÇôΓÇ£├óΓÇôΓÇ£├óΓÇôΓÇ£├óΓÇôΓÇ£├óΓÇôΓÇ£├óΓÇôΓÇ£├óΓÇôΓÇ£├óΓÇôΓÇ£├óΓÇôΓÇ£├óΓÇôΓÇ£├óΓÇôΓÇ£├óΓÇôΓÇ£├óΓÇôΓÇ£├óΓÇôΓÇ£├óΓÇôΓÇ£├óΓÇôΓÇ£├óΓÇôΓÇ£├óΓÇôΓÇ£├óΓÇôΓÇ£├óΓÇôΓÇ£├óΓÇôΓÇ£├óΓÇôΓÇ£├óΓÇôΓÇ£SCREEN SHOT├óΓÇôΓÇ£├óΓÇôΓÇ£├óΓÇôΓÇ£├óΓÇôΓÇ£├óΓÇôΓÇ£├óΓÇôΓÇ£├óΓÇôΓÇ£├óΓÇôΓÇ£├óΓÇôΓÇ£├óΓÇôΓÇ£├óΓÇôΓÇ£├óΓÇôΓÇ£├óΓÇôΓÇ£├óΓÇôΓÇ£├óΓÇôΓÇ£├óΓÇôΓÇ£├óΓÇôΓÇ£├óΓÇôΓÇ£├óΓÇôΓÇ£├óΓÇôΓÇ£├óΓÇôΓÇÿ├óΓÇôΓÇÖ├óΓÇôΓÇ£├óΓÇôΓÇ£├óΓÇôΓÇ£├óΓÇôΓÇ£├óΓÇôΓÇ£├óΓÇôΓÇ£├óΓÇôΓÇ£├óΓÇôΓÇ£├óΓÇôΓÇ£├óΓÇôΓÇ£├óΓÇôΓÇ£├óΓÇôΓÇ£├óΓÇôΓÇ£├óΓÇôΓÇ£├óΓÇôΓÇ£ 

                       http://bayimg.com/fAnFgaACd

├óΓÇôΓÇÿ├óΓÇôΓÇÖ├óΓÇôΓÇ£├óΓÇôΓÇ£├óΓÇôΓÇ£├óΓÇôΓÇ£├óΓÇôΓÇ£├óΓÇôΓÇ£├óΓÇôΓÇ£├óΓÇôΓÇ£├óΓÇôΓÇ£├óΓÇôΓÇ£├óΓÇôΓÇ£├óΓÇôΓÇ£├óΓÇôΓÇ£├óΓÇôΓÇ£├óΓÇôΓÇ£├óΓÇôΓÇ£├óΓÇôΓÇ£├óΓÇôΓÇ£├óΓÇôΓÇ£├óΓÇôΓÇ£├óΓÇôΓÇ£├óΓÇôΓÇ£├óΓÇôΓÇ£├óΓÇôΓÇ£├óΓÇôΓÇ£├óΓÇôΓÇ£├óΓÇôΓÇ£├óΓÇôΓÇ£├óΓÇôΓÇ£├óΓÇôΓÇ£├óΓÇôΓÇ£├óΓÇôΓÇ£├óΓÇôΓÇ£├óΓÇôΓÇ£├óΓÇôΓÇ£├óΓÇôΓÇ£├óΓÇôΓÇ£├óΓÇôΓÇ£├óΓÇôΓÇ£├óΓÇôΓÇ£├óΓÇôΓÇ£├óΓÇôΓÇ£├óΓÇôΓÇ£├óΓÇôΓÇ£├óΓÇôΓÇ£├óΓÇôΓÇ£├óΓÇôΓÇ£├óΓÇôΓÇ£├óΓÇôΓÇ£├óΓÇôΓÇ£├óΓÇôΓÇ£├óΓÇôΓÇÿ├óΓÇôΓÇÖ├óΓÇôΓÇ£├óΓÇôΓÇ£├óΓÇôΓÇ£├óΓÇôΓÇ£├óΓÇôΓÇ£├óΓÇôΓÇ£├óΓÇôΓÇ£├óΓÇôΓÇ£├óΓÇôΓÇ£├óΓÇôΓÇ£├óΓÇôΓÇ£├óΓÇôΓÇ£├óΓÇôΓÇ£├óΓÇôΓÇ£├óΓÇôΓÇ£├óΓÇôΓÇ£├óΓÇôΓÇ£├óΓÇôΓÇ£├óΓÇôΓÇ£├óΓÇôΓÇ£├óΓÇôΓÇ£├óΓÇôΓÇ£├óΓÇôΓÇ£├óΓÇôΓÇ£├óΓÇôΓÇ£├óΓÇôΓÇ£├óΓÇôΓÇ£├óΓÇôΓÇ£

SEED AFTER DOWNLOAD

  http://thepiratebay.org/user/HaUnTiNg.SuMMeR/

├óΓÇôΓÇÿ├óΓÇôΓÇÖ├óΓÇôΓÇ£├óΓÇôΓÇ£├óΓÇôΓÇ£├óΓÇôΓÇ£├óΓÇôΓÇ£├óΓÇôΓÇ£├óΓÇôΓÇ£├óΓÇôΓÇ£├óΓÇôΓÇ£├óΓÇôΓÇ£├óΓÇôΓÇ£├óΓÇôΓÇ£├óΓÇôΓÇ£├óΓÇôΓÇ£├óΓÇôΓÇ£├óΓÇôΓÇ£├óΓÇôΓÇ£├óΓÇôΓÇ£├óΓÇôΓÇ£├óΓÇôΓÇ£├óΓÇôΓÇ£├óΓÇôΓÇ£├óΓÇôΓÇ£├óΓÇôΓÇ£├óΓÇôΓÇ£├óΓÇôΓÇ£├óΓÇôΓÇ£├óΓÇôΓÇ£├óΓÇôΓÇ£├óΓÇôΓÇ£├óΓÇôΓÇ£├óΓÇôΓÇ£├óΓÇôΓÇ£├óΓÇôΓÇ£├óΓÇôΓÇ£├óΓÇôΓÇ£├óΓÇôΓÇ£├óΓÇôΓÇ£├óΓÇôΓÇ£├óΓÇôΓÇ£├óΓÇôΓÇ£├óΓÇôΓÇ£├óΓÇôΓÇ£├óΓÇôΓÇ£├óΓÇôΓÇ£├óΓÇôΓÇ£├óΓÇôΓÇ£├óΓÇôΓÇ£├óΓÇôΓÇ£├óΓÇôΓÇ£├óΓÇôΓÇ£├óΓÇôΓÇÿ├óΓÇôΓÇÖ├óΓÇôΓÇ£├óΓÇôΓÇ£├óΓÇôΓÇ£├óΓÇôΓÇ£├óΓÇôΓÇ£├óΓÇôΓÇ£├óΓÇôΓÇ£├óΓÇôΓÇ£├óΓÇôΓÇ£├óΓÇôΓÇ£├óΓÇôΓÇ£├óΓÇôΓÇ£├óΓÇôΓÇ£├óΓÇôΓÇ£├óΓÇôΓÇ£├óΓÇôΓÇ£├óΓÇôΓÇ£├óΓÇôΓÇ£├óΓÇôΓÇ£├óΓÇôΓÇ£├óΓÇôΓÇ£├óΓÇôΓÇ£├óΓÇôΓÇ£├óΓÇôΓÇ£├óΓÇôΓÇ£├óΓÇôΓÇ£├óΓÇôΓÇ£├óΓÇôΓÇ£